<svg width="212" height="56" viewBox="0 0 212 56" fill="none" xmlns="http://www.w3.org/2000/svg">
<rect width="212" height="56" rx="28" fill="#1E1E1E"/>
<path d="M21.7784 35.179C20.9347 35.179 20.1825 35.0341 19.522 34.7443C18.8658 34.4545 18.3438 34.0518 17.956 33.5362C17.5724 33.0163 17.3636 32.4134 17.3295 31.7273H18.9403C18.9744 32.1491 19.1193 32.5135 19.375 32.8203C19.6307 33.1229 19.9652 33.3572 20.3786 33.5234C20.7919 33.6896 21.25 33.7727 21.7528 33.7727C22.3153 33.7727 22.8139 33.6747 23.2486 33.4787C23.6832 33.2827 24.0241 33.0099 24.2713 32.6605C24.5185 32.3111 24.642 31.9062 24.642 31.446C24.642 30.9645 24.5227 30.5405 24.2841 30.174C24.0455 29.8033 23.696 29.5135 23.2358 29.3047C22.7756 29.0959 22.2131 28.9915 21.5483 28.9915H20.5V27.5852H21.5483C22.0682 27.5852 22.5241 27.4915 22.9162 27.304C23.3125 27.1165 23.6214 26.8523 23.843 26.5114C24.0689 26.1705 24.1818 25.7699 24.1818 25.3097C24.1818 24.8665 24.0838 24.4808 23.8878 24.1527C23.6918 23.8246 23.4148 23.5689 23.0568 23.3857C22.7031 23.2024 22.2855 23.1108 21.804 23.1108C21.3523 23.1108 20.9261 23.1939 20.5256 23.3601C20.1293 23.522 19.8054 23.7585 19.554 24.0696C19.3026 24.3764 19.1662 24.7472 19.1449 25.1818H17.6108C17.6364 24.4957 17.843 23.8949 18.2308 23.3793C18.6186 22.8594 19.1257 22.4545 19.7521 22.1648C20.3828 21.875 21.0753 21.7301 21.8295 21.7301C22.6392 21.7301 23.3338 21.8942 23.9134 22.2223C24.4929 22.5462 24.9382 22.9744 25.2493 23.5071C25.5604 24.0398 25.7159 24.6151 25.7159 25.233C25.7159 25.9702 25.522 26.5987 25.1342 27.1186C24.7507 27.6385 24.2287 27.9986 23.5682 28.1989V28.3011C24.3949 28.4375 25.0405 28.7891 25.505 29.3558C25.9695 29.9183 26.2017 30.6151 26.2017 31.446C26.2017 32.1577 26.0078 32.7969 25.62 33.3636C25.2365 33.9261 24.7124 34.3693 24.0476 34.6932C23.3828 35.017 22.6264 35.179 21.7784 35.179ZM31.7308 35.2301C31.1087 35.2301 30.544 35.1129 30.0369 34.8786C29.5298 34.6399 29.1271 34.2969 28.8288 33.8494C28.5305 33.3977 28.3814 32.8523 28.3814 32.2131C28.3814 31.6506 28.4922 31.1946 28.7138 30.8452C28.9354 30.4915 29.2315 30.2145 29.6023 30.0142C29.973 29.8139 30.3821 29.6648 30.8295 29.5668C31.2813 29.4645 31.7351 29.3835 32.1911 29.3239C32.7876 29.2472 33.2713 29.1896 33.642 29.1513C34.017 29.1087 34.2898 29.0384 34.4602 28.9403C34.6349 28.8423 34.7223 28.6719 34.7223 28.429V28.3778C34.7223 27.7472 34.5497 27.2571 34.2045 26.9077C33.8636 26.5582 33.3459 26.3835 32.6513 26.3835C31.9311 26.3835 31.3665 26.5412 30.9574 26.8565C30.5483 27.1719 30.2607 27.5085 30.0945 27.8665L28.6626 27.3551C28.9183 26.7585 29.2592 26.294 29.6854 25.9616C30.1158 25.625 30.5845 25.3906 31.0916 25.2585C31.603 25.1222 32.1058 25.054 32.6001 25.054C32.9155 25.054 33.2777 25.0923 33.6868 25.169C34.1001 25.2415 34.4986 25.3928 34.8821 25.6229C35.2699 25.853 35.5916 26.2003 35.8473 26.6648C36.103 27.1293 36.2308 27.7514 36.2308 28.5312V35H34.7223V33.6705H34.6456C34.5433 33.8835 34.3729 34.1115 34.1342 34.3544C33.8956 34.5973 33.5781 34.804 33.1818 34.9744C32.7855 35.1449 32.3018 35.2301 31.7308 35.2301ZM31.9609 33.875C32.5575 33.875 33.0604 33.7578 33.4695 33.5234C33.8828 33.2891 34.1939 32.9865 34.4027 32.6158C34.6158 32.245 34.7223 31.8551 34.7223 31.446V30.0653C34.6584 30.142 34.5178 30.2124 34.3004 30.2763C34.0874 30.3359 33.8402 30.3892 33.5589 30.4361C33.282 30.4787 33.0114 30.517 32.7472 30.5511C32.4872 30.581 32.2763 30.6065 32.1143 30.6278C31.7223 30.679 31.3558 30.7621 31.0149 30.8771C30.6783 30.9879 30.4055 31.1562 30.1967 31.3821C29.9922 31.6037 29.8899 31.9062 29.8899 32.2898C29.8899 32.8139 30.0838 33.2102 30.4716 33.4787C30.8636 33.7429 31.3601 33.875 31.9609 33.875ZM46.2711 21.5L47.0382 22.4205C46.7399 22.7102 46.3947 22.9126 46.0027 23.0277C45.6106 23.1428 45.1674 23.2131 44.6731 23.2386C44.1788 23.2642 43.6291 23.2898 43.024 23.3153C42.3422 23.3409 41.7775 23.5071 41.3301 23.8139C40.8826 24.1207 40.5375 24.5639 40.2946 25.1435C40.0517 25.723 39.8961 26.4347 39.8279 27.2784H39.9558C40.2882 26.6648 40.7484 26.2131 41.3365 25.9233C41.9245 25.6335 42.5552 25.4886 43.2285 25.4886C43.9956 25.4886 44.6859 25.6676 45.2995 26.0256C45.9132 26.3835 46.399 26.9141 46.7569 27.6172C47.1149 28.3203 47.2939 29.1875 47.2939 30.2188C47.2939 31.2457 47.1106 32.1321 46.7441 32.8778C46.3819 33.6236 45.8727 34.1989 45.2164 34.6037C44.5645 35.0043 43.7995 35.2045 42.9217 35.2045C42.0439 35.2045 41.2747 34.9979 40.6142 34.5845C39.9537 34.1669 39.4402 33.549 39.0737 32.7308C38.7072 31.9084 38.524 30.892 38.524 29.6818V28.6335C38.524 26.4474 38.8947 24.7898 39.6362 23.6605C40.3819 22.5312 41.5027 21.9474 42.9984 21.9091C43.5268 21.892 43.9977 21.8878 44.411 21.8963C44.8244 21.9048 45.1845 21.8857 45.4913 21.8388C45.7981 21.7919 46.0581 21.679 46.2711 21.5ZM42.9217 33.8494C43.514 33.8494 44.0233 33.7003 44.4494 33.402C44.8798 33.1037 45.21 32.6839 45.4402 32.1428C45.6703 31.5973 45.7853 30.956 45.7853 30.2188C45.7853 29.5028 45.6681 28.8935 45.4338 28.3906C45.2037 27.8878 44.8734 27.5043 44.443 27.2401C44.0126 26.9759 43.497 26.8438 42.8961 26.8438C42.4572 26.8438 42.063 26.9183 41.7136 27.0675C41.3642 27.2166 41.0659 27.4361 40.8187 27.7259C40.5716 28.0156 40.3798 28.3693 40.2434 28.7869C40.1113 29.2045 40.041 29.6818 40.0325 30.2188C40.0325 31.3182 40.2903 32.1982 40.8059 32.8587C41.3216 33.5192 42.0268 33.8494 42.9217 33.8494ZM49.6014 38.6818V25.1818H51.0588V26.7415H51.2377C51.3485 26.571 51.502 26.3537 51.698 26.0895C51.8983 25.821 52.1838 25.5824 52.5545 25.3736C52.9295 25.1605 53.4366 25.054 54.0758 25.054C54.9025 25.054 55.6312 25.2607 56.2619 25.674C56.8926 26.0874 57.3848 26.6733 57.7385 27.4318C58.0922 28.1903 58.269 29.0852 58.269 30.1165C58.269 31.1562 58.0922 32.0575 57.7385 32.8203C57.3848 33.5788 56.8947 34.1669 56.2683 34.5845C55.6419 34.9979 54.9196 35.2045 54.1014 35.2045C53.4707 35.2045 52.9657 35.1001 52.5865 34.8913C52.2072 34.6783 51.9153 34.4375 51.7108 34.169C51.5062 33.8963 51.3485 33.6705 51.2377 33.4915H51.1099V38.6818H49.6014ZM51.0843 30.0909C51.0843 30.8324 51.193 31.4865 51.4103 32.0533C51.6277 32.6158 51.9451 33.0568 52.3627 33.3764C52.7804 33.6918 53.2917 33.8494 53.8968 33.8494C54.5275 33.8494 55.0538 33.6832 55.4757 33.3509C55.9018 33.0142 56.2214 32.5625 56.4345 31.9957C56.6518 31.4247 56.7605 30.7898 56.7605 30.0909C56.7605 29.4006 56.6539 28.7784 56.4409 28.2244C56.2321 27.6662 55.9146 27.2251 55.4885 26.9013C55.0666 26.5732 54.536 26.4091 53.8968 26.4091C53.2832 26.4091 52.7676 26.5646 52.35 26.8757C51.9324 27.1825 51.617 27.6129 51.4039 28.1669C51.1909 28.7166 51.0843 29.358 51.0843 30.0909ZM64.5588 35.2045C63.6724 35.2045 62.8947 34.9936 62.2257 34.5717C61.5609 34.1499 61.041 33.5597 60.666 32.8011C60.2953 32.0426 60.1099 31.1562 60.1099 30.142C60.1099 29.1193 60.2953 28.2266 60.666 27.4638C61.041 26.701 61.5609 26.1087 62.2257 25.6868C62.8947 25.2649 63.6724 25.054 64.5588 25.054C65.4451 25.054 66.2207 25.2649 66.8855 25.6868C67.5545 26.1087 68.0744 26.701 68.4451 27.4638C68.8201 28.2266 69.0076 29.1193 69.0076 30.142C69.0076 31.1562 68.8201 32.0426 68.4451 32.8011C68.0744 33.5597 67.5545 34.1499 66.8855 34.5717C66.2207 34.9936 65.4451 35.2045 64.5588 35.2045ZM64.5588 33.8494C65.2321 33.8494 65.786 33.6768 66.2207 33.3317C66.6554 32.9865 66.9771 32.5327 67.1859 31.9702C67.3947 31.4077 67.4991 30.7983 67.4991 30.142C67.4991 29.4858 67.3947 28.8743 67.1859 28.3075C66.9771 27.7408 66.6554 27.2827 66.2207 26.9332C65.786 26.5838 65.2321 26.4091 64.5588 26.4091C63.8855 26.4091 63.3315 26.5838 62.8968 26.9332C62.4622 27.2827 62.1404 27.7408 61.9316 28.3075C61.7228 28.8743 61.6184 29.4858 61.6184 30.142C61.6184 30.7983 61.7228 31.4077 61.9316 31.9702C62.1404 32.5327 62.4622 32.9865 62.8968 33.3317C63.3315 33.6768 63.8855 33.8494 64.5588 33.8494ZM77.8814 29.4006V30.8068H72.4609V29.4006H77.8814ZM72.8189 25.1818V35H71.3104V25.1818H72.8189ZM79.032 25.1818V35H77.5234V25.1818H79.032ZM83.2955 32.7756L88.0256 25.1818H89.7642V35H88.2557V27.4062L83.5511 35H81.7869V25.1818H83.2955V32.7756ZM92.5272 38.6818V25.1818H93.9846V26.7415H94.1635C94.2743 26.571 94.4277 26.3537 94.6238 26.0895C94.824 25.821 95.1096 25.5824 95.4803 25.3736C95.8553 25.1605 96.3624 25.054 97.0016 25.054C97.8283 25.054 98.557 25.2607 99.1877 25.674C99.8184 26.0874 100.311 26.6733 100.664 27.4318C101.018 28.1903 101.195 29.0852 101.195 30.1165C101.195 31.1562 101.018 32.0575 100.664 32.8203C100.311 33.5788 99.8205 34.1669 99.1941 34.5845C98.5676 34.9979 97.8453 35.2045 97.0272 35.2045C96.3965 35.2045 95.8915 35.1001 95.5123 34.8913C95.133 34.6783 94.8411 34.4375 94.6365 34.169C94.432 33.8963 94.2743 33.6705 94.1635 33.4915H94.0357V38.6818H92.5272ZM94.0101 30.0909C94.0101 30.8324 94.1188 31.4865 94.3361 32.0533C94.5534 32.6158 94.8709 33.0568 95.2885 33.3764C95.7061 33.6918 96.2175 33.8494 96.8226 33.8494C97.4533 33.8494 97.9796 33.6832 98.4015 33.3509C98.8276 33.0142 99.1472 32.5625 99.3603 31.9957C99.5776 31.4247 99.6863 30.7898 99.6863 30.0909C99.6863 29.4006 99.5797 28.7784 99.3667 28.2244C99.1578 27.6662 98.8404 27.2251 98.4142 26.9013C97.9924 26.5732 97.4618 26.4091 96.8226 26.4091C96.209 26.4091 95.6934 26.5646 95.2757 26.8757C94.8581 27.1825 94.5428 27.6129 94.3297 28.1669C94.1167 28.7166 94.0101 29.358 94.0101 30.0909ZM107.485 35.2045C106.598 35.2045 105.82 34.9936 105.151 34.5717C104.487 34.1499 103.967 33.5597 103.592 32.8011C103.221 32.0426 103.036 31.1562 103.036 30.142C103.036 29.1193 103.221 28.2266 103.592 27.4638C103.967 26.701 104.487 26.1087 105.151 25.6868C105.82 25.2649 106.598 25.054 107.485 25.054C108.371 25.054 109.146 25.2649 109.811 25.6868C110.48 26.1087 111 26.701 111.371 27.4638C111.746 28.2266 111.933 29.1193 111.933 30.142C111.933 31.1562 111.746 32.0426 111.371 32.8011C111 33.5597 110.48 34.1499 109.811 34.5717C109.146 34.9936 108.371 35.2045 107.485 35.2045ZM107.485 33.8494C108.158 33.8494 108.712 33.6768 109.146 33.3317C109.581 32.9865 109.903 32.5327 110.112 31.9702C110.32 31.4077 110.425 30.7983 110.425 30.142C110.425 29.4858 110.32 28.8743 110.112 28.3075C109.903 27.7408 109.581 27.2827 109.146 26.9332C108.712 26.5838 108.158 26.4091 107.485 26.4091C106.811 26.4091 106.257 26.5838 105.823 26.9332C105.388 27.2827 105.066 27.7408 104.857 28.3075C104.649 28.8743 104.544 29.4858 104.544 30.142C104.544 30.7983 104.649 31.4077 104.857 31.9702C105.066 32.5327 105.388 32.9865 105.823 33.3317C106.257 33.6768 106.811 33.8494 107.485 33.8494ZM114.236 35V25.1818H118.25C119.307 25.1818 120.147 25.4205 120.769 25.8977C121.391 26.375 121.702 27.0057 121.702 27.7898C121.702 28.3864 121.525 28.8487 121.172 29.1768C120.818 29.5007 120.364 29.7202 119.81 29.8352C120.172 29.8864 120.524 30.0142 120.865 30.2188C121.21 30.4233 121.495 30.7045 121.721 31.0625C121.947 31.4162 122.06 31.8509 122.06 32.3665C122.06 32.8693 121.932 33.3189 121.676 33.7152C121.421 34.1115 121.054 34.4247 120.577 34.6548C120.1 34.8849 119.529 35 118.864 35H114.236ZM115.668 33.6193H118.864C119.384 33.6193 119.791 33.4957 120.085 33.2486C120.379 33.0014 120.526 32.6648 120.526 32.2386C120.526 31.7315 120.379 31.3331 120.085 31.0433C119.791 30.7493 119.384 30.6023 118.864 30.6023H115.668V33.6193ZM115.668 29.2983H118.25C118.655 29.2983 119.002 29.2429 119.292 29.1321C119.582 29.017 119.804 28.8551 119.957 28.6463C120.115 28.4332 120.194 28.1818 120.194 27.892C120.194 27.4787 120.021 27.1548 119.676 26.9205C119.331 26.6818 118.855 26.5625 118.25 26.5625H115.668V29.2983ZM127.233 35.2301C126.611 35.2301 126.046 35.1129 125.539 34.8786C125.032 34.6399 124.629 34.2969 124.331 33.8494C124.032 33.3977 123.883 32.8523 123.883 32.2131C123.883 31.6506 123.994 31.1946 124.216 30.8452C124.437 30.4915 124.733 30.2145 125.104 30.0142C125.475 29.8139 125.884 29.6648 126.331 29.5668C126.783 29.4645 127.237 29.3835 127.693 29.3239C128.29 29.2472 128.773 29.1896 129.144 29.1513C129.519 29.1087 129.792 29.0384 129.962 28.9403C130.137 28.8423 130.224 28.6719 130.224 28.429V28.3778C130.224 27.7472 130.052 27.2571 129.706 26.9077C129.366 26.5582 128.848 26.3835 128.153 26.3835C127.433 26.3835 126.868 26.5412 126.459 26.8565C126.05 27.1719 125.763 27.5085 125.596 27.8665L124.165 27.3551C124.42 26.7585 124.761 26.294 125.187 25.9616C125.618 25.625 126.086 25.3906 126.594 25.2585C127.105 25.1222 127.608 25.054 128.102 25.054C128.417 25.054 128.78 25.0923 129.189 25.169C129.602 25.2415 130.001 25.3928 130.384 25.6229C130.772 25.853 131.094 26.2003 131.349 26.6648C131.605 27.1293 131.733 27.7514 131.733 28.5312V35H130.224V33.6705H130.148C130.045 33.8835 129.875 34.1115 129.636 34.3544C129.398 34.5973 129.08 34.804 128.684 34.9744C128.287 35.1449 127.804 35.2301 127.233 35.2301ZM127.463 33.875C128.059 33.875 128.562 33.7578 128.971 33.5234C129.385 33.2891 129.696 32.9865 129.905 32.6158C130.118 32.245 130.224 31.8551 130.224 31.446V30.0653C130.16 30.142 130.02 30.2124 129.802 30.2763C129.589 30.3359 129.342 30.3892 129.061 30.4361C128.784 30.4787 128.513 30.517 128.249 30.5511C127.989 30.581 127.778 30.6065 127.616 30.6278C127.224 30.679 126.858 30.7621 126.517 30.8771C126.18 30.9879 125.907 31.1562 125.699 31.3821C125.494 31.6037 125.392 31.9062 125.392 32.2898C125.392 32.8139 125.586 33.2102 125.974 33.4787C126.366 33.7429 126.862 33.875 127.463 33.875ZM133.15 26.5881V25.1818H141.127V26.5881H137.906V35H136.397V26.5881H133.15ZM144.632 28.7358H147.444C148.595 28.7358 149.475 29.0277 150.084 29.6115C150.694 30.1953 150.998 30.9347 150.998 31.8295C150.998 32.4176 150.862 32.9524 150.589 33.4339C150.317 33.9112 149.916 34.2926 149.388 34.5781C148.859 34.8594 148.211 35 147.444 35H143.328V25.1818H144.836V33.5938H147.444C148.041 33.5938 148.531 33.4361 148.915 33.1207C149.298 32.8054 149.49 32.4006 149.49 31.9062C149.49 31.3864 149.298 30.9624 148.915 30.6342C148.531 30.3061 148.041 30.142 147.444 30.142H144.632V28.7358Z" fill="white"/>
<rect x="160" y="10" width="36" height="36" rx="18" fill="white"/>
<path d="M184 26L188 30H168" stroke="black" stroke-width="1.5" stroke-linecap="round" stroke-linejoin="round"/>
</svg>
