<svg width="34" height="34" viewBox="0 0 34 34" fill="none" xmlns="http://www.w3.org/2000/svg">
<path fill-rule="evenodd" clip-rule="evenodd" d="M33 17C33 25.8365 25.8365 33 17 33C8.16345 33 1 25.8365 1 17C1 8.16344 8.16345 1 17 1C25.8365 1 33 8.16344 33 17ZM17.5733 12.8119C16.0171 13.4592 12.9068 14.7989 8.24251 16.831C7.4851 17.1323 7.08833 17.427 7.05221 17.715C6.99117 18.2021 7.60094 18.3938 8.43129 18.6549C8.54424 18.6904 8.66126 18.7272 8.78123 18.7661C9.59817 19.0317 10.6971 19.3424 11.2684 19.3547C11.7866 19.3659 12.365 19.1523 13.0035 18.7138C17.3614 15.772 19.6112 14.2851 19.7523 14.253C19.852 14.2304 19.9901 14.2019 20.0837 14.2851C20.1773 14.3683 20.168 14.5258 20.1581 14.568C20.0978 14.8256 17.7042 17.0509 16.4654 18.2024C16.0794 18.5614 15.8054 18.816 15.7494 18.8742C15.624 19.0045 15.4962 19.1277 15.3733 19.2461C14.6144 19.9778 14.0451 20.5264 15.4048 21.4224C16.0581 21.853 16.581 22.209 17.1026 22.5642C17.6722 22.9522 18.2403 23.339 18.9755 23.821C19.1627 23.9437 19.3416 24.0712 19.5158 24.1954C20.1787 24.668 20.7742 25.0926 21.5101 25.0248C21.9376 24.9856 22.3792 24.5835 22.6035 23.3845C23.1336 20.5509 24.1755 14.4112 24.4163 11.8813C24.4374 11.6596 24.4109 11.376 24.3894 11.2514C24.3682 11.1269 24.3237 10.9495 24.1618 10.8181C23.9701 10.6626 23.6741 10.6298 23.5418 10.632C22.94 10.6427 22.0166 10.9638 17.5733 12.8119Z" stroke="black" stroke-linejoin="round"/>
</svg>
