<svg width="34" height="34" viewBox="0 0 34 34" fill="none" xmlns="http://www.w3.org/2000/svg">
<path d="M17.0072 1C14.2266 1.00299 11.4947 1.72924 9.07997 3.10736C6.66527 4.48548 4.65095 6.46802 3.23506 8.86006C1.81917 11.2521 1.05046 13.9713 1.00451 16.7502C0.958559 19.5292 1.63695 22.2723 2.97299 24.7098L1 33L9.29398 31.0279C11.4332 32.2009 13.8123 32.8695 16.2496 32.9827C18.6869 33.096 21.1179 32.6508 23.3567 31.6812C25.5955 30.7116 27.583 29.2432 29.1671 27.3884C30.7513 25.5335 31.8903 23.3412 32.4971 20.979C33.1039 18.6168 33.1624 16.1472 32.6681 13.7589C32.1739 11.3706 31.14 9.12691 29.6454 7.19918C28.1508 5.27145 26.2351 3.71074 24.0447 2.63632C21.8543 1.5619 19.4472 1.00221 17.0072 1ZM9.00362 8.2707H13.3665C13.564 8.2707 13.7534 8.3491 13.893 8.48866C14.0326 8.62823 14.111 8.81751 14.111 9.01488C14.0866 10.0073 14.2534 10.9952 14.6024 11.9247C14.7527 12.2358 14.7858 12.5906 14.6955 12.9242C14.6053 13.2577 14.3978 13.5475 14.111 13.7405L12.5848 15.2288C13.2615 16.5498 14.1464 17.7534 15.2055 18.7935C16.2376 19.8694 17.4369 20.7715 18.7569 21.4651L20.2459 19.9395C20.9904 19.1953 21.3329 19.1953 22.0625 19.4484C22.9924 19.7972 23.9807 19.9639 24.9736 19.9395C25.1682 19.9486 25.3523 20.0299 25.49 20.1676C25.6277 20.3052 25.7091 20.4893 25.7182 20.6837V25.0447C25.7091 25.2391 25.6277 25.4232 25.49 25.5608C25.3523 25.6985 25.1682 25.7798 24.9736 25.7888C20.594 25.5981 16.4426 23.7834 13.3293 20.6986C10.2383 17.59 8.42187 13.4385 8.23676 9.05953C8.23853 8.8547 8.31921 8.65842 8.46203 8.51151C8.60485 8.36459 8.79882 8.27835 9.00362 8.2707Z" stroke="black" stroke-linecap="round" stroke-linejoin="round"/>
</svg>
